<svg xmlns="http://www.w3.org/2000/svg" viewBox="0 0 128 128" role="img" aria-labelledby="title">
  <title>西班牙国徽</title>
  <circle cx="64" cy="64" r="60" fill="#fdf6e5" stroke="#c79d41" stroke-width="4"/>
  <path d="M64 18 92 28v30c0 22-11 38-28 52C47 96 36 80 36 58V28z" fill="#f6c431" stroke="#b38728" stroke-width="3"/>
  <path d="M36 28h56v12H36zM36 76h56v12H36z" fill="#c91f28"/>
  <path d="M50 43h28v22H50z" rx="4" fill="#fff2cf" stroke="#9f6f13" stroke-width="2"/>
  <path d="M64 30 71 36H57z" fill="#b38728"/>
  <path d="M56 47h16v14H56z" fill="#c91f28"/>
  <circle cx="64" cy="54" r="4" fill="#f6c431"/>
  <path d="M25 80c8 18 21 28 39 33M103 80c-8 18-21 28-39 33" fill="none" stroke="#7b8f4e" stroke-linecap="round" stroke-width="4"/>
</svg>
